<svg width="695" height="694" viewBox="0 0 695 694" fill="none" xmlns="http://www.w3.org/2000/svg">
    <path d="M39 354L56 245L63 239H644L654 347L638.5 447H638L168 465.5L24.5 462.5L39 354Z" fill="white"/>
    <path d="M630.32 438.1L618.08 400.84C606.7 407.62 593.51 411.54 579.4 411.54C564.52 411.54 550.64 407.19 538.86 399.7L525.62 438.1H460.67L410.38 367.88L397.4 384.64V438.1H345.7V246.08H397.4V329.83L463.25 246.27H504.56L434.24 337.08L490.13 414.97L549.83 246.28H619.55L653.84 351.24L694.06 93.77L93.77 0L55.28 246.36H107.63H107.75C159.91 247.15 201.97 289.79 201.97 342.36C201.97 393.1 162.86 438.11 113.15 438.11H38.91V351.19L0 600.29L600.29 694.06L640.27 438.1H630.32V438.1ZM324.55 282.4H267.63V329.27H324.55V365.97H267.63V402.26H324.55V438.1H215.75V246.27H324.55V282.4Z" fill="#E1261D"/>
    <path d="M90.64 284.75V399.93H106.3C137.97 399.93 163.65 374.15 163.65 342.34C163.65 310.54 137.97 284.75 106.3 284.75H90.64Z" fill="#E1261D"/>
    <path d="M577.49 287.68L549.72 368.21C549.43 369.07 549.77 370.03 550.55 370.48C559.08 375.4 568.92 378.22 579.4 378.22C589.29 378.22 598.59 375.71 606.78 371.29C607.59 370.86 607.96 369.88 607.67 369.01L581.06 287.7C580.5 285.99 578.08 285.97 577.49 287.68Z" fill="#E1261D"/>
</svg>