<?xml version="1.0" encoding="UTF-8"?>
<svg xmlns="http://www.w3.org/2000/svg" version="1.1" width="1130px" height="732px" xmlns:xlink="http://www.w3.org/1999/xlink">
<path fill="#e30613" d="M -0.5,-0.5 C 376.167,-0.5 752.833,-0.5 1129.5,-0.5C 1129.5,243.5 1129.5,487.5 1129.5,731.5C 752.833,731.5 376.167,731.5 -0.5,731.5C -0.5,487.5 -0.5,243.5 -0.5,-0.5 Z"/>
<path fill="#fffefe" d="M 177.5,150.5 C 216.501,150.333 255.501,150.5 294.5,151C 317.157,151.193 339.49,153.859 361.5,159C 398.137,173.057 415.637,199.891 414,239.5C 414.167,277.833 414.333,316.167 414.5,354.5C 414.635,396.519 414.135,438.519 413,480.5C 410.963,512.525 394.463,532.358 363.5,540C 356.93,541.647 350.264,542.647 343.5,543C 288.182,544.429 232.848,544.929 177.5,544.5C 177.5,413.167 177.5,281.833 177.5,150.5 Z"/>
<path fill="#fefffe" d="M 436.5,150.5 C 469.833,150.5 503.167,150.5 536.5,150.5C 536.5,167.167 536.5,183.833 536.5,200.5C 503.167,200.5 469.833,200.5 436.5,200.5C 436.5,183.833 436.5,167.167 436.5,150.5 Z"/>
<path fill="#fefefe" d="M 858.5,222.5 C 885.672,222.169 912.672,222.502 939.5,223.5C 926.846,265.799 914.179,308.133 901.5,350.5C 918.496,415.153 935.163,479.819 951.5,544.5C 920.5,544.5 889.5,544.5 858.5,544.5C 848.447,498.499 838.28,452.499 828,406.5C 827.5,452.499 827.333,498.499 827.5,544.5C 794.5,544.5 761.5,544.5 728.5,544.5C 728.5,413.167 728.5,281.833 728.5,150.5C 761.5,150.5 794.5,150.5 827.5,150.5C 827.333,205.168 827.5,259.834 828,314.5C 837.903,283.626 848.069,252.959 858.5,222.5 Z"/>
<path fill="#fadfe1" d="M 436.5,150.5 C 436.5,167.167 436.5,183.833 436.5,200.5C 469.833,200.5 503.167,200.5 536.5,200.5C 503.004,201.498 469.337,201.832 435.5,201.5C 435.17,184.325 435.503,167.325 436.5,150.5 Z"/>
<path fill="#fffefe" d="M 713.5,215.5 C 713.5,253.167 713.5,290.833 713.5,328.5C 709.629,328.185 705.962,328.518 702.5,329.5C 688.038,329.151 675.538,333.818 665,343.5C 659.734,350.966 657.067,359.299 657,368.5C 656.5,427.166 656.333,485.832 656.5,544.5C 623.5,544.5 590.5,544.5 557.5,544.5C 557.5,436.833 557.5,329.167 557.5,221.5C 590.167,221.5 622.833,221.5 655.5,221.5C 654.775,235.531 653.941,249.531 653,263.5C 661.384,243.117 675.551,228.283 695.5,219C 701.405,217.294 707.405,216.127 713.5,215.5 Z"/>
<path fill="#f4a0a4" d="M 713.5,215.5 C 714.499,253.33 714.832,291.33 714.5,329.5C 710.5,329.5 706.5,329.5 702.5,329.5C 705.962,328.518 709.629,328.185 713.5,328.5C 713.5,290.833 713.5,253.167 713.5,215.5 Z"/>
<path fill="#e30713" d="M 280.5,218.5 C 287.66,218.089 294.66,218.922 301.5,221C 305.388,223.222 308.221,226.388 310,230.5C 311.151,267.796 311.651,305.129 311.5,342.5C 311.333,378.167 311.167,413.833 311,449.5C 310.611,456.513 308.944,463.179 306,469.5C 304.269,471.617 302.102,473.117 299.5,474C 293.303,475.886 286.97,476.72 280.5,476.5C 280.5,390.5 280.5,304.5 280.5,218.5 Z"/>
<path fill="#fadfe1" d="M 858.5,222.5 C 885.67,221.171 913.003,221.171 940.5,222.5C 940.376,223.107 940.043,223.44 939.5,223.5C 912.672,222.502 885.672,222.169 858.5,222.5 Z"/>
<path fill="#fadfe1" d="M 536.5,222.5 C 503.167,222.5 469.833,222.5 436.5,222.5C 436.5,329.833 436.5,437.167 436.5,544.5C 435.501,437.001 435.167,329.335 435.5,221.5C 469.337,221.168 503.004,221.502 536.5,222.5 Z"/>
<path fill="#fefffe" d="M 536.5,222.5 C 536.5,329.833 536.5,437.167 536.5,544.5C 503.167,544.5 469.833,544.5 436.5,544.5C 436.5,437.167 436.5,329.833 436.5,222.5C 469.833,222.5 503.167,222.5 536.5,222.5 Z"/>
<path fill="#fffefe" d="M 177.5,563.5 C 435.833,563.5 694.167,563.5 952.5,563.5C 952.5,569.167 952.5,574.833 952.5,580.5C 694.167,580.5 435.833,580.5 177.5,580.5C 177.5,574.833 177.5,569.167 177.5,563.5 Z"/>
</svg>
