<?xml version="1.0" encoding="UTF-8"?>
<svg xmlns="http://www.w3.org/2000/svg" xmlns:xlink="http://www.w3.org/1999/xlink" width="545.75pt" height="545.75pt" viewBox="0 0 545.75 545.75" version="1.1">
<g id="surface1">
<path style=" stroke:none;fill-rule:nonzero;fill:rgb(93.299866%,19.198608%,14.099121%);fill-opacity:1;" d="M 545.753906 545.75 L 0 545.75 L 0 -0.00390625 L 545.753906 -0.00390625 L 545.753906 545.75 "/>
<path style=" stroke:none;fill-rule:nonzero;fill:rgb(100%,100%,100%);fill-opacity:1;" d="M 439.707031 204.351563 C 442.625 209.324219 421.789063 234.621094 415.21875 237.472656 C 414.132813 237.941406 414.015625 236.339844 413.800781 235.667969 C 411.675781 228.902344 431.328125 203.273438 439.707031 204.351563 Z M 347.902344 236.773438 C 341.957031 253.75 337.574219 272.164063 323.714844 285.015625 C 322.269531 275.234375 327.90625 263.394531 331.832031 254.796875 C 335.730469 246.253906 341.226563 233.660156 350.089844 229.070313 C 349.960938 231.667969 348.75 234.347656 347.902344 236.773438 C 347.726563 237.28125 348.289063 235.667969 347.902344 236.773438 Z M 525.535156 250.203125 C 521.332031 242.433594 512.65625 251.695313 508.789063 254.640625 C 499.058594 262.046875 495.515625 264.496094 484.644531 270.066406 C 476.832031 274.070313 465.898438 275.828125 456.785156 275.363281 C 447.445313 274.886719 439.664063 272.15625 432.65625 266.554688 C 431.011719 265.242188 416.683594 253.765625 418.273438 251.914063 C 421.359375 248.328125 426.5 245.710938 430.050781 242.460938 C 434.878906 238.039063 439.289063 233.164063 443.195313 227.914063 C 450.132813 218.597656 468.71875 187.238281 444.136719 186.386719 C 433.777344 186.773438 422.457031 194.84375 415.695313 202.238281 C 412.242188 206.015625 409.40625 210.28125 406.507813 214.484375 C 404.953125 216.734375 403.410156 221.535156 401.089844 218.117188 C 393.925781 207.574219 386.257813 218.121094 383.273438 225.921875 C 379.007813 237.089844 379.480469 249.644531 374.40625 260.542969 C 370.59375 268.734375 369.292969 281.289063 360.160156 284.128906 C 355.191406 285.675781 359.230469 259.152344 359.65625 255.980469 C 361.109375 245.132813 365.03125 234.890625 366.679688 224.074219 C 368.183594 214.195313 357.933594 204.597656 348.007813 210.503906 C 333.882813 218.90625 324.085938 234.191406 316.605469 248.414063 C 312.394531 256.425781 309.019531 264.890625 306.964844 273.71875 C 305.769531 278.871094 303.757813 281.558594 298.488281 283.875 C 299.472656 276.757813 299.316406 269.355469 299.757813 262.191406 C 300.367188 252.320313 302.652344 239.628906 299.40625 230.058594 C 296.644531 221.910156 285.125 219.617188 279.347656 225.25 C 271.878906 232.535156 266.746094 242.523438 261.929688 251.675781 C 261.046875 244.695313 262.027344 238.003906 255.957031 233.128906 C 243.136719 223.992188 234.457031 238.183594 228.703125 248.777344 C 227.980469 242.644531 233.730469 233.472656 226.757813 229.785156 C 220.667969 226.566406 217.964844 227.480469 215.445313 234.132813 C 211.714844 243.992188 210.980469 255.976563 209.183594 266.355469 C 207.039063 278.714844 204.847656 291.089844 203.03125 303.5 C 201.847656 311.582031 199.039063 321.207031 209.171875 324.488281 C 217.492188 327.183594 219.257813 316.40625 221.289063 310.695313 C 225.257813 299.550781 229.035156 288.316406 233.441406 277.335938 C 236.589844 269.492188 239.648438 259.328125 244.960938 252.726563 C 249.203125 264.746094 225.273438 319.210938 249.714844 316.148438 C 255.394531 316.148438 256.785156 307.066406 258.433594 302.878906 C 261.644531 294.730469 264.730469 286.535156 267.984375 278.402344 C 272.273438 267.6875 276.4375 251.472656 284.949219 243.53125 C 286.652344 259.351563 282.96875 277.433594 281.660156 293.265625 C 281.117188 299.832031 280.484375 308.425781 288.03125 311.269531 C 296.597656 314.5 307.460938 304.550781 311.179688 298.207031 C 313.609375 302.109375 316.179688 306.441406 321.355469 306.441406 C 332.078125 306.441406 337.570313 299.261719 342.035156 290.667969 C 345.859375 311.582031 369.269531 297.027344 376.425781 286.011719 C 377.441406 291.277344 379.429688 294.242188 385.21875 294.871094 C 388.980469 295.28125 391.429688 295.09375 392.574219 291.175781 C 395.894531 279.835938 393.972656 266.957031 400.089844 256.46875 C 407.0625 264.429688 412.445313 272.941406 421.066406 279.492188 C 431.921875 287.738281 447.339844 293.363281 461.871094 292.503906 C 474.890625 291.730469 487.980469 288.300781 501.566406 279.613281 C 508.347656 275.277344 529.792969 258.863281 525.535156 250.203125 C 525.09375 249.300781 525.964844 250.996094 525.535156 250.203125 "/>
<path style=" stroke:none;fill-rule:nonzero;fill:rgb(100%,100%,100%);fill-opacity:1;" d="M 212.0625 107.714844 C 208.78125 104.804688 205.273438 103.328125 201.632813 103.328125 C 188.625 103.328125 177.003906 121.703125 170.761719 131.578125 L 170.375 132.1875 C 148.988281 165.972656 131.488281 205.09375 115.296875 255.304688 C 109.25 274.058594 103.613281 294.335938 97.027344 321.058594 C 94.949219 329.488281 92.539063 339.285156 90.289063 348.863281 C 89.644531 351.625 88.996094 354.386719 88.351563 357.148438 L 87.023438 362.839844 C 86.8125 363.726563 86.644531 364.863281 86.464844 366.066406 C 86.066406 368.769531 85.574219 372.070313 84.414063 373.894531 C 82.195313 368.910156 81.480469 362.746094 80.789063 356.777344 C 80.554688 354.765625 80.335938 352.863281 80.058594 351.050781 L 79.339844 346.289063 C 77.550781 334.5 75.703125 322.308594 74.085938 310.296875 C 70.589844 284.308594 68.539063 257.390625 66.730469 233.640625 C 66.121094 225.664063 65.769531 217.542969 65.429688 209.691406 C 65.261719 205.738281 65.089844 201.785156 64.886719 197.832031 C 64.585938 191.949219 63.070313 189.855469 57.527344 187.640625 C 56.101563 187.066406 53.960938 186.308594 51.851563 186.308594 C 49.890625 186.308594 48.195313 186.960938 46.8125 188.25 C 42.15625 192.59375 42.292969 198.628906 42.425781 204.464844 C 42.445313 205.222656 42.460938 205.984375 42.46875 206.738281 C 42.570313 217.554688 43.460938 228.539063 44.320313 239.160156 C 44.453125 240.789063 44.585938 242.417969 44.714844 244.046875 C 46.980469 272.617188 49.925781 300.511719 53.46875 326.945313 C 55.558594 342.515625 57.527344 355.089844 59.671875 366.507813 C 60.019531 368.347656 60.339844 370.429688 60.679688 372.636719 C 62.1875 382.40625 64.0625 394.566406 70.246094 400.703125 C 75.210938 405.632813 83.417969 409.210938 89.761719 409.210938 C 96.070313 409.210938 99.1875 395.066406 100.683594 388.265625 C 100.886719 387.339844 101.058594 386.5625 101.199219 386 C 103.9375 375.074219 106.609375 363.9375 109.1875 353.167969 C 110.980469 345.6875 112.835938 337.949219 114.699219 330.347656 C 124.589844 289.972656 134.25 257.394531 145.097656 227.824219 C 152.308594 208.113281 159.492188 191.253906 167.070313 176.28125 C 172.644531 165.265625 177.496094 156.480469 182.339844 148.644531 C 185.167969 144.0625 187.90625 139.980469 190.710938 136.164063 C 190.914063 135.886719 191.160156 135.757813 191.484375 135.757813 C 192.507813 135.757813 193.992188 137.015625 194.878906 137.765625 L 195.160156 138.003906 C 197.914063 140.304688 200.863281 141.570313 203.464844 141.570313 C 206.761719 141.570313 209.375 139.554688 210.824219 135.894531 C 216.511719 121.515625 216.925781 112.035156 212.0625 107.714844 "/>
<path style=" stroke:none;fill-rule:nonzero;fill:rgb(100%,100%,100%);fill-opacity:1;" d="M 185.90625 265.078125 C 183.652344 282.6875 175.367188 301.914063 164.277344 315.753906 C 159.78125 321.363281 152.65625 326.949219 150.160156 317.378906 C 149.144531 313.492188 146.753906 302.339844 149.777344 299.074219 C 152.03125 296.644531 151.800781 295.035156 153.53125 291.039063 C 154.925781 287.820313 156.199219 284.785156 157.589844 281.566406 C 160.660156 274.460938 164.640625 269.101563 169.191406 262.8125 C 173.039063 257.496094 178.386719 253.835938 183.597656 249.902344 C 187.175781 247.199219 186.179688 262.972656 185.90625 265.078125 C 185.445313 268.691406 186.226563 262.597656 185.90625 265.078125 Z M 202.890625 251.714844 C 201.472656 241.445313 192.28125 233.835938 181.863281 233.835938 C 173.5625 233.835938 161.632813 241.171875 155.757813 246.695313 C 138.328125 263.066406 130.53125 292.367188 132.253906 315.441406 C 133.050781 326.105469 141.59375 333.8125 151.453125 336.699219 C 164.621094 340.554688 174.039063 331.328125 180.914063 321.296875 C 193.890625 302.351563 206.132813 275.214844 202.890625 251.714844 C 202.410156 248.234375 203.464844 255.886719 202.890625 251.714844 "/>
<path style=" stroke:none;fill-rule:nonzero;fill:rgb(100%,100%,100%);fill-opacity:1;" d="M 135.558594 351.554688 L 145.976563 351.554688 L 149.8125 362.226563 L 153.644531 372.910156 L 157.5 362.226563 L 161.351563 351.554688 L 171.578125 351.554688 L 164.734375 368.546875 L 157.882813 385.535156 L 149.203125 385.535156 L 142.394531 368.546875 L 135.558594 351.554688 "/>
<path style=" stroke:none;fill-rule:nonzero;fill:rgb(100%,100%,100%);fill-opacity:1;" d="M 198.472656 368.519531 L 198.472656 368.429688 C 198.472656 365.964844 197.609375 363.695313 196.09375 362.027344 C 194.582031 360.367188 192.421875 359.3125 189.84375 359.3125 C 187.265625 359.3125 185.121094 360.351563 183.617188 361.996094 C 182.125 363.644531 181.265625 365.898438 181.265625 368.332031 L 181.265625 368.429688 C 181.265625 370.859375 182.144531 373.136719 183.667969 374.808594 C 185.195313 376.476563 187.363281 377.539063 189.933594 377.539063 C 192.496094 377.539063 194.628906 376.496094 196.121094 374.851563 C 197.617188 373.210938 198.472656 370.957031 198.472656 368.519531 M 171.714844 368.519531 L 171.714844 368.429688 C 171.714844 363.582031 173.667969 359.195313 176.921875 356.023438 C 180.179688 352.847656 184.734375 350.882813 189.933594 350.882813 C 195.148438 350.882813 199.679688 352.816406 202.914063 355.972656 C 206.140625 359.121094 208.066406 363.488281 208.066406 368.332031 L 208.066406 368.429688 C 208.066406 373.273438 206.113281 377.65625 202.863281 380.835938 C 199.609375 384.015625 195.054688 385.976563 189.84375 385.976563 C 184.640625 385.976563 180.113281 384.035156 176.882813 380.882813 C 173.644531 377.726563 171.714844 373.367188 171.714844 368.519531 "/>
<path style=" stroke:none;fill-rule:nonzero;fill:rgb(100%,100%,100%);fill-opacity:1;" d="M 238.675781 368.519531 L 238.675781 368.429688 C 238.675781 365.964844 237.804688 363.695313 236.292969 362.027344 C 234.78125 360.367188 232.628906 359.3125 230.046875 359.3125 C 227.46875 359.3125 225.320313 360.351563 223.824219 361.996094 C 222.316406 363.644531 221.457031 365.898438 221.457031 368.332031 L 221.457031 368.429688 C 221.457031 370.859375 222.347656 373.136719 223.863281 374.808594 C 225.394531 376.476563 227.566406 377.539063 230.140625 377.539063 C 232.695313 377.539063 234.832031 376.496094 236.328125 374.851563 C 237.828125 373.210938 238.675781 370.957031 238.675781 368.519531 M 211.921875 368.519531 L 211.921875 368.429688 C 211.921875 363.582031 213.867188 359.195313 217.125 356.023438 C 220.375 352.847656 224.933594 350.882813 230.140625 350.882813 C 235.34375 350.882813 239.878906 352.816406 243.113281 355.972656 C 246.34375 359.121094 248.265625 363.488281 248.265625 368.332031 L 248.265625 368.429688 C 248.265625 373.273438 246.316406 377.65625 243.0625 380.835938 C 239.804688 384.015625 235.25 385.976563 230.046875 385.976563 C 224.839844 385.976563 220.3125 384.035156 217.078125 380.882813 C 213.84375 377.726563 211.921875 373.367188 211.921875 368.519531 "/>
<path style=" stroke:none;fill-rule:nonzero;fill:rgb(100%,100%,100%);fill-opacity:1;" d="M 269.699219 367.75 C 271.269531 367.75 272.515625 367.367188 273.375 366.671875 C 274.242188 365.976563 274.71875 364.984375 274.71875 363.753906 L 274.71875 363.652344 C 274.71875 362.308594 274.214844 361.289063 273.335938 360.613281 C 272.457031 359.941406 271.195313 359.605469 269.648438 359.605469 L 263.476563 359.605469 L 263.476563 367.75 Z M 254.125 351.554688 L 270.085938 351.554688 C 272.660156 351.554688 274.84375 351.890625 276.664063 352.511719 C 278.484375 353.136719 279.945313 354.035156 281.074219 355.171875 C 282.0625 356.160156 282.8125 357.289063 283.316406 358.589844 C 283.808594 359.898438 284.066406 361.367188 284.066406 363.027344 L 284.066406 363.125 C 284.066406 365.726563 283.375 367.882813 282.164063 369.609375 C 280.957031 371.339844 279.214844 372.644531 277.117188 373.539063 L 281.152344 379.414063 L 285.167969 385.300781 L 274.421875 385.300781 L 271.015625 380.191406 L 267.621094 375.078125 L 263.476563 375.078125 L 263.476563 385.300781 L 254.125 385.300781 L 254.125 351.554688 "/>
<path style=" stroke:none;fill-rule:nonzero;fill:rgb(100%,100%,100%);fill-opacity:1;" d="M 300.964844 359.796875 L 300.964844 377.003906 L 304.773438 377.003906 C 307.589844 377.003906 309.929688 376.234375 311.570313 374.785156 C 313.199219 373.332031 314.128906 371.195313 314.128906 368.476563 L 314.128906 368.378906 C 314.128906 365.675781 313.199219 363.535156 311.570313 362.0625 C 309.929688 360.589844 307.589844 359.796875 304.773438 359.796875 Z M 291.613281 351.554688 L 304.675781 351.554688 C 310.671875 351.554688 315.417969 353.289063 318.671875 356.242188 C 321.921875 359.199219 323.667969 363.363281 323.667969 368.230469 L 323.667969 368.328125 C 323.667969 373.203125 321.902344 377.441406 318.609375 380.464844 C 315.332031 383.492188 310.53125 385.300781 304.484375 385.300781 L 291.613281 385.300781 L 291.613281 351.554688 "/>
<path style=" stroke:none;fill-rule:nonzero;fill:rgb(100%,100%,100%);fill-opacity:1;" d="M 330.464844 351.554688 L 357.609375 351.554688 L 357.609375 359.464844 L 339.726563 359.464844 L 339.726563 364.613281 L 355.917969 364.613281 L 355.917969 371.992188 L 339.726563 371.992188 L 339.726563 377.339844 L 357.855469 377.339844 L 357.855469 385.300781 L 330.464844 385.300781 L 330.464844 351.554688 "/>
<path style=" stroke:none;fill-rule:nonzero;fill:rgb(100%,100%,100%);fill-opacity:1;" d="M 365.5 351.554688 L 392.632813 351.554688 L 392.632813 359.460938 L 383.695313 359.460938 L 374.75 359.464844 L 374.75 364.613281 L 390.945313 364.613281 L 390.945313 371.992188 L 374.75 371.992188 L 374.75 377.339844 L 392.878906 377.339844 L 392.878906 385.300781 L 365.5 385.300781 L 365.5 351.554688 "/>
<path style=" stroke:none;fill-rule:nonzero;fill:rgb(100%,100%,100%);fill-opacity:1;" d="M 399.628906 351.554688 L 408.984375 351.554688 L 408.984375 377.101563 L 425.320313 377.101563 L 425.320313 385.300781 L 399.628906 385.300781 L 399.628906 351.554688 "/>
<path style=" stroke:none;fill-rule:nonzero;fill:rgb(100%,100%,100%);fill-opacity:1;" d="M 193.253906 396.964844 L 199.574219 396.964844 L 204.699219 404.9375 L 209.835938 412.925781 L 214.976563 404.9375 L 220.105469 396.964844 L 226.421875 396.964844 L 226.421875 430.710938 L 220.5 430.710938 L 220.5 406.511719 L 209.835938 422.417969 L 209.648438 422.417969 L 204.371094 414.515625 L 199.085938 406.605469 L 199.085938 430.710938 L 193.253906 430.710938 L 193.253906 396.964844 "/>
<path style=" stroke:none;fill-rule:nonzero;fill:rgb(100%,100%,100%);fill-opacity:1;" d="M 255.683594 417.308594 L 252.761719 410.558594 L 249.851563 403.8125 L 246.949219 410.558594 L 244.058594 417.308594 Z M 247.199219 396.722656 L 252.6875 396.722656 L 260.117188 413.71875 L 267.535156 430.710938 L 261.273438 430.710938 L 259.558594 426.636719 L 257.851563 422.566406 L 241.886719 422.566406 L 240.15625 426.636719 L 238.429688 430.710938 L 232.339844 430.710938 L 239.78125 413.71875 L 247.199219 396.722656 "/>
<path style=" stroke:none;fill-rule:nonzero;fill:rgb(100%,100%,100%);fill-opacity:1;" d="M 288.96875 413.695313 C 291.089844 413.695313 292.820313 413.136719 294.03125 412.15625 C 295.230469 411.175781 295.902344 409.761719 295.902344 408.054688 L 295.902344 407.960938 C 295.902344 406.148438 295.25 404.753906 294.054688 403.804688 C 292.851563 402.859375 291.109375 402.367188 288.910156 402.367188 L 280.289063 402.367188 L 280.289063 413.695313 Z M 274.355469 396.964844 L 289.398438 396.964844 C 291.519531 396.964844 293.410156 397.277344 295.050781 397.855469 C 296.671875 398.4375 298.050781 399.28125 299.132813 400.339844 C 300.023438 401.253906 300.730469 402.34375 301.199219 403.558594 C 301.6875 404.789063 301.9375 406.148438 301.9375 407.617188 L 301.9375 407.71875 C 301.9375 410.488281 301.101563 412.703125 299.683594 414.398438 C 298.265625 416.097656 296.265625 417.265625 293.933594 417.9375 L 298.484375 424.324219 L 303.042969 430.710938 L 296.007813 430.710938 L 291.855469 424.832031 L 287.710938 418.945313 L 280.289063 418.945313 L 280.289063 430.710938 L 274.355469 430.710938 L 274.355469 396.964844 "/>
<path style=" stroke:none;fill-rule:nonzero;fill:rgb(100%,100%,100%);fill-opacity:1;" d="M 311.140625 396.964844 L 317.082031 396.964844 L 317.082031 413.9375 L 325.105469 405.449219 L 333.128906 396.964844 L 340.445313 396.964844 L 333.414063 404.222656 L 326.371094 411.476563 L 333.722656 421.09375 L 341.078125 430.710938 L 333.855469 430.710938 L 328.089844 423.121094 L 322.328125 415.523438 L 319.703125 418.222656 L 317.082031 420.921875 L 317.082031 430.710938 L 311.140625 430.710938 L 311.140625 396.964844 "/>
<path style=" stroke:none;fill-rule:nonzero;fill:rgb(100%,100%,100%);fill-opacity:1;" d="M 355.882813 402.460938 L 345.175781 402.460938 L 345.175781 396.964844 L 372.5625 396.964844 L 372.5625 402.460938 L 361.863281 402.460938 L 361.863281 430.710938 L 355.882813 430.710938 L 355.882813 402.460938 "/>
</g>
</svg>
